<svg xmlns="http://www.w3.org/2000/svg" viewBox="0 0 108.8 110.02"><defs><style>.cls-1{fill:#009245;}.cls-2{fill:#39b54a;}.cls-3{fill:#f7931e;}.cls-4{fill:#006837;}.cls-5{fill:#ed1c24;}.cls-6{fill:#662d91;}.cls-7{fill:#f15a24;}</style></defs><g id="Layer_2" data-name="Layer 2"><g id="Layer_1-2" data-name="Layer 1"><path class="cls-1" d="M15.81,64.64a41.18,41.18,0,1,1,67.49,19c7.28,2.38,11.81,2.54,14.51,2.1a53.37,53.37,0,1,0-93.21-16A43.92,43.92,0,0,1,15.81,64.64Z"/><path class="cls-2" d="M0,77.82s22.07-22.95,57.68-2.45,42.58,12.27,42.58,12.27S95.63,95.85,88,96.12c-20.68.72-40.28-14.27-56.27-14.36,0,0,33.56,8.81,33.06,15.87,0,0-27.67,23.72-44.5,4.87a7.62,7.62,0,0,1-1.24-2C17.35,96.76,10.82,83.66,0,77.82Z"/><path class="cls-1" d="M23,96.69c2.77,4.28,10.89,14.4,23.87,11.16,0,0-25.89,11.45-37.81-18.22,0,0-3.95-8.36-9.1-11.81C0,77.82,6.5,77,17.15,89A64.08,64.08,0,0,1,23,96.69Z"/><path class="cls-3" d="M78.68,81.27S95.35,66.38,91.35,49.55c0,0-.08,6.5-5.61,17,0,0,7.5-17.58,1.83-23.62S67,42.69,65,58.59s-3.34,14.57-3.34,14.57A77.53,77.53,0,0,0,78.68,81.27Z"/><path class="cls-4" d="M92.8,46.38s-.93-11.09-8-17.05c0,0,1.44,4.11.88,6.5s5,7.5,5.34,9.61c0,0-2-8.28-3.39-10.39s4.94,8.3,4.42,13.58Z"/><path class="cls-5" d="M19.6,63.55s18.75-4.5,38.7,7.66c0,0,9.84-16.25-4.95-21.75-5.83-2.16-10.75-2.16-16.8,4.93a12.56,12.56,0,0,1,6.13-7.59s-9.83-7.09-17.91-2.34C12.22,51.84,19.6,63.55,19.6,63.55Z"/><path class="cls-6" d="M66.67,39.87a4.08,4.08,0,0,0-1.11.17,4.12,4.12,0,0,1,.09.86,4.4,4.4,0,0,1-1.18,3A4.57,4.57,0,0,1,67.36,48a4.11,4.11,0,0,0-.69-8.16Z"/><path class="cls-6" d="M63.61,44.67a4.52,4.52,0,0,1-2.19.68,4.1,4.1,0,0,1-3,3.18s0,.06,0,.1a4.11,4.11,0,1,0,5.15-4Z"/><path class="cls-6" d="M71.12,35.66a4.09,4.09,0,0,0-5-1.57,4.1,4.1,0,0,1-2.17,3.29,4.56,4.56,0,0,1,1.38,1.75,4.54,4.54,0,0,1,5.12,1.77A4.09,4.09,0,0,0,71.12,35.66Z"/><circle class="cls-6" cx="40.92" cy="25.94" r="4.11"/><path class="cls-6" d="M55.16,24.38a4.11,4.11,0,0,0-4.11,4.11,3.73,3.73,0,0,0,0,.48,4.36,4.36,0,0,1,.61,1.74,4.11,4.11,0,1,0,3.46-6.33Z"/><path class="cls-6" d="M35.13,39.64a4.69,4.69,0,0,1,1.26-3.17,4.62,4.62,0,0,1-2-3.29,4,4,0,0,0-2-.53,4.11,4.11,0,1,0,2.75,7.15S35.13,39.7,35.13,39.64Z"/><path class="cls-6" d="M39.15,37.27H39a4.63,4.63,0,0,1-2.1-.52,4.06,4.06,0,0,0-1.19,2.87,4.1,4.1,0,0,0,7.55,2.23A4.65,4.65,0,0,1,39.15,37.27Z"/><path class="cls-4" d="M45.68,46.8s8.92.33,14.75-11.09c0,0-13.58-3.25-17.33,9.17,0,0,6.17-6.33,9-6.75C52.06,38.13,43.54,44.28,45.68,46.8Z"/><path class="cls-6" d="M46.93,27.11a3.89,3.89,0,0,0-1.63.36A4.69,4.69,0,0,1,43,30.18h0a4.66,4.66,0,0,1,.7,2.43,5,5,0,0,1-.1,1,4.11,4.11,0,1,0,3.36-6.46Z"/><path class="cls-6" d="M41,30.7a4.65,4.65,0,0,1-3.69-1.83,4.12,4.12,0,1,0,5.18,1.57A4.91,4.91,0,0,1,41,30.7Z"/><path class="cls-6" d="M47.36,20.7A4.09,4.09,0,0,0,44,22.47,4.65,4.65,0,0,1,45.66,26a4.69,4.69,0,0,1-.06.54A4.54,4.54,0,0,1,47,26.33a4.71,4.71,0,0,1,3.31,1.37,4.11,4.11,0,0,0-2.93-7Z"/><path class="cls-4" d="M36.28,25.94A7.13,7.13,0,0,0,37,28.33s-1.13.76-1.32.93-5.52-1.59-12.52,9.41c0,0-1.77.75-1.38-.79S29.25,27.54,36.28,25.94Z"/><path class="cls-6" d="M48,36.84a5.06,5.06,0,0,0-.21-1,5.08,5.08,0,0,1-1,.12,4.66,4.66,0,0,1-3.47-1.55,4.65,4.65,0,0,1-3.48,2.76v0a4.1,4.1,0,0,0,4,4.09A13.2,13.2,0,0,1,48,36.84Z"/><path class="cls-6" d="M57.22,34.58A4.28,4.28,0,0,0,56.46,33a4.47,4.47,0,0,1-4.74-1.25,4.69,4.69,0,0,1-2.58,3.67s0,.06,0,.09a3.93,3.93,0,0,0,.06.6A16.12,16.12,0,0,1,57.22,34.58Z"/><path class="cls-6" d="M57,42.14a18,18,0,0,1-4.39,3.53,4.09,4.09,0,0,0,7.85-.38A4.44,4.44,0,0,1,57,42.14Z"/><path class="cls-6" d="M63.16,37.7a3.89,3.89,0,0,1-1.14.19,4,4,0,0,1-1.78-.44,21.09,21.09,0,0,1-2.69,4.1,3.74,3.74,0,1,0,5.61-3.85Z"/><path class="cls-6" d="M61.68,28.88a4,4,0,0,0-2,.51,4.63,4.63,0,0,1-2.11,3.09,4.2,4.2,0,0,0,0,.51,4.09,4.09,0,0,0,.35,1.64,17.79,17.79,0,0,1,3.32.56q-.36.9-.75,1.71a4,4,0,0,0,1.19.2,4.11,4.11,0,1,0,0-8.22Z"/><path class="cls-7" d="M40.92,18.8S63,8,81.77,26.3c0,0,2.16,5.5,1.33,10.42,0,0-5.42-1.26-8.92,1.66,0,0-1.55-6.58-6.94-6.28,0,0-.08-4.9-6.42-5,0,0-.71-5.33-7.65-4.44-.32,0-3.14-5.28-9.92-2a6.4,6.4,0,0,0-4.48,0C36.52,21.63,40.92,18.8,40.92,18.8Z"/><ellipse class="cls-4" cx="70.04" cy="20.5" rx="1.24" ry="2.04" transform="translate(29.08 80.89) rotate(-72.16)"/></g></g></svg>